<?xml version="1.0" encoding="UTF-8"?>
<svg xmlns="http://www.w3.org/2000/svg" width="1024" height="1024" viewBox="0 0 1024 1024">
  <path d="M0,0 h51.2v51.2h-51.2z M51.2,0 h51.2v51.2h-51.2z M102.4,0 h51.2v51.2h-51.2z M153.6,0 h51.2v51.2h-51.2z M204.8,0 h51.2v51.2h-51.2z M256,0 h51.2v51.2h-51.2z M307.2,0 h51.2v51.2h-51.2z M716.8,0 h51.2v51.2h-51.2z M768,0 h51.2v51.2h-51.2z M819.2,0 h51.2v51.2h-51.2z M870.4,0 h51.2v51.2h-51.2z M921.6,0 h51.2v51.2h-51.2z M972.8,0 h51.2v51.2h-51.2z M0,51.2 h51.2v51.2h-51.2z M51.2,51.2 h51.2v51.2h-51.2z M102.4,51.2 h51.2v51.2h-51.2z M153.6,51.2 h51.2v51.2h-51.2z M204.8,51.2 h51.2v51.2h-51.2z M256,51.2 h51.2v51.2h-51.2z M307.2,51.2 h51.2v51.2h-51.2z M768,51.2 h51.2v51.2h-51.2z M819.2,51.2 h51.2v51.2h-51.2z M870.4,51.2 h51.2v51.2h-51.2z M921.6,51.2 h51.2v51.2h-51.2z M972.8,51.2 h51.2v51.2h-51.2z M0,102.4 h51.2v51.2h-51.2z M51.2,102.4 h51.2v51.2h-51.2z M102.4,102.4 h51.2v51.2h-51.2z M153.6,102.4 h51.2v51.2h-51.2z M204.8,102.4 h51.2v51.2h-51.2z M256,102.4 h51.2v51.2h-51.2z M768,102.4 h51.2v51.2h-51.2z M819.2,102.4 h51.2v51.2h-51.2z M870.4,102.4 h51.2v51.2h-51.2z M921.6,102.4 h51.2v51.2h-51.2z M972.8,102.4 h51.2v51.2h-51.2z M0,153.6 h51.2v51.2h-51.2z M51.2,153.6 h51.2v51.2h-51.2z M102.4,153.6 h51.2v51.2h-51.2z M153.6,153.6 h51.2v51.2h-51.2z M204.8,153.6 h51.2v51.2h-51.2z M256,153.6 h51.2v51.2h-51.2z M460.8,153.6 h51.2v51.2h-51.2z M716.8,153.6 h51.2v51.2h-51.2z M768,153.6 h51.2v51.2h-51.2z M819.2,153.6 h51.2v51.2h-51.2z M870.4,153.6 h51.2v51.2h-51.2z M921.6,153.6 h51.2v51.2h-51.2z M972.8,153.6 h51.2v51.2h-51.2z M0,204.8 h51.2v51.2h-51.2z M51.2,204.8 h51.2v51.2h-51.2z M102.4,204.8 h51.2v51.2h-51.2z M153.6,204.8 h51.2v51.2h-51.2z M409.6,204.8 h51.2v51.2h-51.2z M870.4,204.8 h51.2v51.2h-51.2z M921.6,204.8 h51.2v51.2h-51.2z M972.8,204.8 h51.2v51.2h-51.2z M0,256 h51.2v51.2h-51.2z M51.2,256 h51.2v51.2h-51.2z M102.4,256 h51.2v51.2h-51.2z M153.6,256 h51.2v51.2h-51.2z M307.2,256 h51.2v51.2h-51.2z M768,256 h51.2v51.2h-51.2z M870.4,256 h51.2v51.2h-51.2z M921.6,256 h51.2v51.2h-51.2z M972.8,256 h51.2v51.2h-51.2z M0,307.2 h51.2v51.2h-51.2z M51.2,307.2 h51.2v51.2h-51.2z M153.6,307.2 h51.2v51.2h-51.2z M768,307.2 h51.2v51.2h-51.2z M972.8,307.2 h51.2v51.2h-51.2z M0,358.4 h51.2v51.2h-51.2z M102.4,358.4 h51.2v51.2h-51.2z M204.8,358.4 h51.2v51.2h-51.2z M460.8,358.4 h51.2v51.2h-51.2z M512,358.4 h51.2v51.2h-51.2z M921.6,358.4 h51.2v51.2h-51.2z M460.8,409.6 h51.2v51.2h-51.2z M512,409.6 h51.2v51.2h-51.2z M307.2,460.8 h51.2v51.2h-51.2z M358.4,460.8 h51.2v51.2h-51.2z M460.8,460.8 h51.2v51.2h-51.2z M512,460.8 h51.2v51.2h-51.2z M563.2,460.8 h51.2v51.2h-51.2z M409.6,512 h51.2v51.2h-51.2z M512,512 h51.2v51.2h-51.2z M358.4,563.2 h51.2v51.2h-51.2z M409.6,563.2 h51.2v51.2h-51.2z M460.8,563.2 h51.2v51.2h-51.2z M614.4,563.2 h51.2v51.2h-51.2z M665.6,563.2 h51.2v51.2h-51.2z M358.4,614.4 h51.2v51.2h-51.2z M512,614.4 h51.2v51.2h-51.2z M563.2,614.4 h51.2v51.2h-51.2z M0,665.6 h51.2v51.2h-51.2z M51.2,665.6 h51.2v51.2h-51.2z M102.4,665.6 h51.2v51.2h-51.2z M204.8,665.6 h51.2v51.2h-51.2z M307.2,665.6 h51.2v51.2h-51.2z M358.4,665.6 h51.2v51.2h-51.2z M460.8,665.6 h51.2v51.2h-51.2z M512,665.6 h51.2v51.2h-51.2z M563.2,665.6 h51.2v51.2h-51.2z M614.4,665.6 h51.2v51.2h-51.2z M819.2,665.6 h51.2v51.2h-51.2z M921.6,665.6 h51.2v51.2h-51.2z M0,716.8 h51.2v51.2h-51.2z M51.2,716.8 h51.2v51.2h-51.2z M102.4,716.8 h51.2v51.2h-51.2z M307.2,716.8 h51.2v51.2h-51.2z M358.4,716.8 h51.2v51.2h-51.2z M409.6,716.8 h51.2v51.2h-51.2z M460.8,716.8 h51.2v51.2h-51.2z M512,716.8 h51.2v51.2h-51.2z M614.4,716.8 h51.2v51.2h-51.2z M972.8,716.8 h51.2v51.2h-51.2z M0,768 h51.2v51.2h-51.2z M51.2,768 h51.2v51.2h-51.2z M102.4,768 h51.2v51.2h-51.2z M153.6,768 h51.2v51.2h-51.2z M870.4,768 h51.2v51.2h-51.2z M921.6,768 h51.2v51.2h-51.2z M972.8,768 h51.2v51.2h-51.2z M0,819.2 h51.2v51.2h-51.2z M51.2,819.2 h51.2v51.2h-51.2z M102.4,819.2 h51.2v51.2h-51.2z M153.6,819.2 h51.2v51.2h-51.2z M204.8,819.2 h51.2v51.2h-51.2z M307.2,819.2 h51.2v51.2h-51.2z M819.2,819.2 h51.2v51.2h-51.2z M870.4,819.2 h51.2v51.2h-51.2z M921.6,819.2 h51.2v51.2h-51.2z M972.8,819.2 h51.2v51.2h-51.2z M0,870.4 h51.2v51.2h-51.2z M51.2,870.4 h51.2v51.2h-51.2z M102.4,870.4 h51.2v51.2h-51.2z M153.6,870.4 h51.2v51.2h-51.2z M204.8,870.4 h51.2v51.2h-51.2z M256,870.4 h51.2v51.2h-51.2z M563.2,870.4 h51.2v51.2h-51.2z M768,870.4 h51.2v51.2h-51.2z M819.2,870.4 h51.2v51.2h-51.2z M870.4,870.4 h51.2v51.2h-51.2z M921.6,870.4 h51.2v51.2h-51.2z M972.8,870.4 h51.2v51.2h-51.2z M0,921.6 h51.2v51.2h-51.2z M51.2,921.6 h51.2v51.2h-51.2z M102.4,921.6 h51.2v51.2h-51.2z M153.6,921.6 h51.2v51.2h-51.2z M204.8,921.6 h51.2v51.2h-51.2z M256,921.6 h51.2v51.2h-51.2z M307.2,921.6 h51.2v51.2h-51.2z M358.4,921.6 h51.2v51.2h-51.2z M665.6,921.6 h51.2v51.2h-51.2z M716.8,921.6 h51.2v51.2h-51.2z M768,921.6 h51.2v51.2h-51.2z M819.2,921.6 h51.2v51.2h-51.2z M870.4,921.6 h51.2v51.2h-51.2z M921.6,921.6 h51.2v51.2h-51.2z M972.8,921.6 h51.2v51.2h-51.2z M0,972.8 h51.2v51.2h-51.2z M51.2,972.8 h51.2v51.2h-51.2z M102.4,972.8 h51.2v51.2h-51.2z M153.6,972.8 h51.2v51.2h-51.2z M204.8,972.8 h51.2v51.2h-51.2z M256,972.8 h51.2v51.2h-51.2z M307.2,972.8 h51.2v51.2h-51.2z M358.4,972.8 h51.2v51.2h-51.2z M716.8,972.8 h51.2v51.2h-51.2z M768,972.8 h51.2v51.2h-51.2z M819.2,972.8 h51.2v51.2h-51.2z M870.4,972.8 h51.2v51.2h-51.2z M921.6,972.8 h51.2v51.2h-51.2z M972.8,972.8 h51.2v51.2h-51.2z" fill="#000000"/>
</svg>